<?xml version="1.0" standalone="no"?>
<!DOCTYPE svg PUBLIC "-//W3C//DTD SVG 20010904//EN"
 "http://www.w3.org/TR/2001/REC-SVG-20010904/DTD/svg10.dtd">
<svg version="1.0" xmlns="http://www.w3.org/2000/svg"
 width="700.000000pt" height="700.000000pt" viewBox="0 0 700.000000 700.000000"
 preserveAspectRatio="xMidYMid meet">
<metadata>
Created by potrace 1.11, written by Peter Selinger 2001-2013
</metadata>
<g transform="translate(0.000000,700.000000) scale(0.100000,-0.100000)"
fill="#000000" stroke="none">
<path d="M3119 6926 c-2 -2 -31 -7 -64 -10 -490 -48 -1066 -261 -1510 -559
-61 -41 -246 -176 -255 -186 -3 -3 -36 -33 -75 -65 -85 -72 -311 -299 -381
-381 -172 -206 -326 -437 -447 -671 l-47 -92 133 -57 c72 -31 146 -63 162 -70
100 -45 1796 -769 2035 -870 74 -31 149 -62 165 -70 130 -57 299 -124 304
-120 3 4 6 711 6 1571 0 1494 -2 1604 -26 1580z"/>
<path d="M3773 6922 c-9 -6 -9 -3049 0 -3127 2 -18 9 -29 17 -27 13 3 338 138
415 172 46 21 254 109 400 170 55 23 118 50 140 60 22 10 443 190 935 400 492
210 898 386 903 390 6 6 -49 126 -101 216 -102 178 -261 405 -377 540 -33 38
-64 74 -70 80 -114 132 -342 339 -520 472 -192 144 -496 317 -705 402 -30 12
-68 28 -85 35 -65 29 -313 106 -428 135 -138 33 -327 67 -426 76 -36 3 -71 7
-77 9 -6 2 -15 0 -21 -3z"/>
<path d="M116 4332 c-7 -15 -16 -43 -20 -62 -3 -19 -8 -46 -11 -60 -3 -14 -8
-40 -11 -59 -3 -18 -7 -43 -10 -55 -12 -65 -34 -234 -41 -321 -14 -181 -8
-600 12 -725 2 -14 6 -45 10 -70 13 -88 16 -106 26 -165 6 -33 13 -70 15 -83
23 -121 106 -389 174 -557 43 -109 151 -329 205 -421 25 -42 45 -77 45 -80 0
-2 37 -59 82 -126 91 -136 242 -328 337 -428 l61 -65 182 186 c170 172 610
625 773 793 180 186 487 506 526 547 24 25 112 117 195 205 83 87 162 171 175
185 13 15 42 46 64 70 22 24 50 56 63 71 l24 28 -27 10 c-14 5 -50 21 -78 34
-29 13 -364 157 -746 320 -381 164 -707 303 -725 311 -17 7 -48 20 -69 29 -20
9 -52 22 -70 30 -100 45 -1077 459 -1124 477 -19 7 -25 4 -37 -19z"/>
<path d="M6640 4293 c-143 -59 -346 -146 -1085 -460 -283 -121 -619 -265 -670
-288 -16 -7 -197 -85 -400 -173 -204 -88 -395 -170 -425 -184 -30 -13 -70 -30
-87 -37 -18 -8 -33 -16 -33 -20 1 -7 70 -80 333 -354 95 -99 204 -212 243
-253 139 -145 511 -529 609 -630 55 -56 206 -212 337 -346 476 -490 477 -491
496 -476 9 7 19 16 22 19 3 3 28 33 57 65 237 271 383 488 529 784 197 401
294 742 339 1190 12 115 13 610 2 700 -2 19 -7 64 -12 100 -4 36 -9 74 -11 85
-2 10 -6 37 -9 60 -3 22 -8 47 -10 55 -2 8 -7 31 -10 50 -11 69 -36 155 -48
166 -9 9 -50 -4 -167 -53z"/>
<path d="M3083 2303 c-385 -394 -541 -554 -678 -698 -81 -84 -419 -436 -495
-515 -79 -81 -366 -384 -394 -414 -14 -16 -26 -32 -26 -36 0 -10 51 -48 110
-84 25 -15 52 -31 60 -36 180 -114 469 -251 681 -324 141 -48 337 -103 399
-112 8 -1 53 -9 100 -17 80 -14 154 -26 210 -33 193 -24 663 -23 835 2 17 2
46 6 65 8 78 10 179 27 245 42 39 8 81 17 95 20 78 16 379 111 395 125 5 5 15
9 22 9 7 0 37 11 67 25 30 14 57 25 61 25 7 0 244 118 300 149 117 66 251 150
281 176 l34 30 -76 80 c-186 195 -456 476 -537 559 -48 50 -172 178 -275 285
-204 213 -214 222 -608 627 -308 316 -441 451 -471 477 -20 17 -27 11 -400
-370z"/>
</g>
</svg>
