<?xml version="1.0" standalone="no"?>
<!DOCTYPE svg PUBLIC "-//W3C//DTD SVG 20010904//EN"
 "http://www.w3.org/TR/2001/REC-SVG-20010904/DTD/svg10.dtd">
<svg version="1.0" xmlns="http://www.w3.org/2000/svg"
 width="700.000000pt" height="700.000000pt" viewBox="0 0 700.000000 700.000000"
 preserveAspectRatio="xMidYMid meet">
<metadata>
Created by potrace 1.14, written by Peter Selinger 2001-2017
</metadata>
<g transform="translate(0.000000,700.000000) scale(0.100000,-0.100000)"
fill="#000000" stroke="none">
<path d="M3307 6974 c-1 -1 -39 -5 -84 -8 -46 -4 -91 -9 -100 -10 -10 -2 -49
-7 -88 -12 -38 -4 -72 -8 -75 -9 -3 -1 -39 -7 -80 -14 -154 -26 -469 -107
-512 -131 -10 -6 -22 -10 -28 -10 -6 0 -68 -23 -138 -51 -218 -87 -465 -218
-646 -342 -71 -49 -176 -126 -192 -141 -6 -6 -29 -24 -50 -41 -106 -82 -415
-381 -413 -401 0 -5 41 -40 91 -79 50 -38 109 -86 133 -105 60 -50 50 -42 380
-305 165 -131 302 -242 305 -245 3 -4 23 -20 45 -36 22 -16 49 -37 60 -46 20
-17 213 -172 592 -473 103 -82 197 -157 208 -166 11 -9 148 -119 305 -243 157
-125 293 -233 303 -241 16 -14 17 -6 18 138 0 83 2 238 4 342 8 411 15 968 20
1570 3 347 7 728 10 848 l5 218 -35 -3 c-20 -1 -37 -3 -38 -4z"/>
<path d="M3680 6804 c-1 -93 -3 -326 -5 -519 -2 -192 -6 -735 -10 -1205 -4
-470 -8 -931 -9 -1023 -1 -93 1 -170 4 -172 4 -2 484 345 670 485 32 24 279
206 439 324 251 185 1366 1018 1380 1031 12 12 9 20 -21 57 -99 120 -342 361
-395 392 -9 4 -23 16 -33 26 -59 59 -331 245 -496 338 -92 52 -338 172 -353
172 -5 0 -33 11 -62 24 -147 64 -436 147 -629 180 -14 2 -36 7 -50 10 -57 13
-236 35 -342 43 l-86 6 -2 -169z"/>
<path d="M622 5458 c-198 -296 -355 -627 -456 -961 -20 -65 -38 -132 -41 -149
-3 -17 -8 -34 -10 -38 -2 -4 -7 -22 -10 -41 -3 -19 -10 -50 -15 -69 -4 -19
-14 -69 -20 -110 -6 -41 -13 -86 -16 -100 -4 -29 -11 -90 -23 -210 -9 -82 -6
-566 3 -623 2 -15 7 -59 11 -97 10 -101 11 -105 26 -103 8 1 205 41 439 88
234 47 436 88 450 91 14 3 90 18 169 34 79 17 158 33 175 36 17 3 94 18 171
34 77 16 151 32 165 34 14 3 70 14 125 26 55 12 111 24 125 26 14 3 88 18 165
34 135 29 314 66 365 76 14 3 88 18 165 34 77 16 151 31 165 34 14 2 59 12
100 21 41 9 84 18 95 21 11 2 29 6 40 8 11 2 56 12 100 21 44 9 81 18 82 19 1
0 -134 109 -299 241 -165 132 -305 245 -312 250 -22 20 -1200 957 -1326 1055
-25 19 -52 41 -60 47 -85 69 -472 373 -475 373 -3 0 -35 -46 -73 -102z"/>
<path d="M6230 5395 c-63 -47 -122 -91 -130 -98 -8 -7 -55 -41 -105 -77 -49
-35 -94 -68 -100 -73 -15 -12 -106 -80 -640 -474 -508 -375 -765 -566 -1033
-764 -86 -64 -213 -157 -281 -207 -76 -56 -119 -93 -110 -96 15 -6 163 -40
324 -75 28 -6 88 -20 135 -31 47 -11 105 -25 130 -30 60 -12 70 -15 175 -40
50 -12 97 -23 105 -25 23 -5 333 -76 350 -80 120 -28 250 -57 270 -61 54 -11
197 -44 211 -48 8 -3 25 -7 39 -10 14 -2 108 -23 210 -46 102 -23 221 -50 265
-60 44 -10 163 -37 265 -60 102 -23 192 -43 200 -45 8 -2 87 -20 175 -40 88
-20 167 -38 175 -40 8 -2 27 -6 41 -10 29 -7 28 -10 45 125 3 25 7 56 10 70
26 161 26 646 0 840 -2 14 -7 46 -10 71 -33 242 -108 523 -208 774 -105 263
-344 695 -384 695 -5 0 -61 -38 -124 -85z"/>
<path d="M3830 3280 c0 -10 79 -174 295 -615 76 -154 184 -374 240 -490 114
-234 412 -839 674 -1367 l172 -348 67 42 c234 146 375 248 536 388 41 35 244
238 286 285 276 309 505 691 650 1079 53 142 110 319 110 341 0 10 -130 43
-305 79 -11 3 -63 14 -115 26 -52 12 -102 23 -110 25 -8 2 -130 29 -270 60
-140 31 -264 59 -275 61 -11 2 -40 8 -65 14 -88 22 -520 119 -710 160 -47 10
-159 35 -250 55 -91 20 -172 38 -180 40 -8 2 -105 24 -215 48 -110 25 -211 48
-225 51 -14 3 -54 11 -90 20 -36 8 -90 19 -120 26 -30 6 -65 15 -77 20 -14 6
-23 6 -23 0z"/>
<path d="M2965 3230 c-126 -27 -248 -52 -270 -55 -22 -4 -67 -13 -100 -20 -33
-8 -73 -16 -90 -19 -16 -3 -75 -15 -130 -26 -55 -11 -113 -23 -130 -26 -16 -2
-37 -7 -45 -9 -8 -2 -31 -7 -50 -10 -19 -3 -51 -10 -70 -15 -19 -5 -53 -12
-75 -16 -22 -3 -67 -12 -100 -19 -33 -8 -76 -17 -95 -20 -19 -3 -87 -17 -150
-30 -63 -13 -126 -26 -140 -29 -14 -2 -124 -25 -245 -50 -121 -26 -231 -48
-245 -51 -55 -10 -516 -106 -530 -110 -8 -2 -31 -7 -50 -10 -19 -3 -99 -19
-178 -35 -79 -17 -145 -30 -147 -30 -7 0 5 -47 49 -182 121 -369 279 -689 482
-978 250 -354 580 -670 954 -912 69 -45 186 -116 223 -135 8 -5 184 352 466
942 34 72 67 137 72 145 5 8 13 24 18 35 5 11 46 97 91 190 45 94 108 224 140
290 85 178 178 372 257 535 39 80 91 188 116 240 25 52 84 175 131 273 47 98
86 180 86 183 0 5 15 8 -245 -46z"/>
<path d="M3424 3013 c-48 -98 -103 -214 -124 -258 -21 -44 -75 -156 -120 -250
-45 -93 -102 -210 -125 -260 -23 -49 -76 -160 -118 -245 -137 -283 -219 -453
-304 -630 -47 -96 -109 -224 -138 -285 -29 -60 -99 -204 -155 -320 -205 -421
-222 -458 -208 -467 7 -4 16 -8 20 -8 4 0 31 -11 60 -24 67 -30 243 -96 283
-106 17 -4 64 -17 105 -28 42 -12 91 -24 110 -27 18 -3 36 -8 40 -10 8 -5 243
-45 300 -51 25 -3 56 -6 69 -9 129 -23 628 -23 762 0 13 2 45 7 71 9 101 12
284 46 363 67 22 6 45 12 50 13 144 32 565 185 565 206 0 5 -106 223 -236 487
-130 263 -296 600 -369 748 -73 149 -202 412 -288 585 -85 173 -233 475 -330
671 -96 196 -180 359 -186 363 -7 4 -43 -59 -97 -171z"/>
</g>
</svg>
