<?xml version="1.0" encoding="UTF-8"?>
<!DOCTYPE svg PUBLIC "-//W3C//DTD SVG 1.1//EN" "http://www.w3.org/Graphics/SVG/1.1/DTD/svg11.dtd">
<svg xmlns="http://www.w3.org/2000/svg" version="1.1" width="903px" height="904px" style="shape-rendering:geometricPrecision; text-rendering:geometricPrecision; image-rendering:optimizeQuality; fill-rule:evenodd; clip-rule:evenodd" xmlns:xlink="http://www.w3.org/1999/xlink">
<g><path style="opacity:1" fill="#fdfdfd" d="M -0.5,-0.5 C 300.5,-0.5 601.5,-0.5 902.5,-0.5C 902.5,300.833 902.5,602.167 902.5,903.5C 601.5,903.5 300.5,903.5 -0.5,903.5C -0.5,602.167 -0.5,300.833 -0.5,-0.5 Z"/></g>
<g><path style="opacity:1" fill="#000000" d="M 426.5,3.5 C 429.5,3.5 432.5,3.5 435.5,3.5C 435.5,10.8333 435.5,18.1667 435.5,25.5C 434.519,152.506 433.019,279.506 431,406.5C 325.742,322.453 220.575,238.287 115.5,154C 198.857,62.6593 302.524,12.4926 426.5,3.5 Z"/></g>
<g><path style="opacity:1" fill="#000000" d="M 475.5,3.5 C 605.194,12.0146 712.194,65.1812 796.5,163C 688.601,243.532 580.434,323.699 472,403.5C 473.523,270.174 474.69,136.84 475.5,3.5 Z"/></g>
<g><path style="opacity:1" fill="#747474" d="M 426.5,3.5 C 429.625,2.52056 432.958,2.18723 436.5,2.5C 436.825,10.3516 436.492,18.0182 435.5,25.5C 435.5,18.1667 435.5,10.8333 435.5,3.5C 432.5,3.5 429.5,3.5 426.5,3.5 Z"/></g>
<g><path style="opacity:1" fill="#000000" d="M 89.5,186.5 C 90.552,186.351 91.552,186.517 92.5,187C 197.984,271.574 303.651,355.907 409.5,440C 275.915,467.312 142.415,494.812 9,522.5C -9.72223,399.396 17.1111,287.396 89.5,186.5 Z"/></g>
<g><path style="opacity:1" fill="#000000" d="M 820.5,195.5 C 867.796,262.537 894.63,337.204 901,419.5C 902.953,456.069 901.12,492.402 895.5,528.5C 761.031,498.977 626.698,468.81 492.5,438C 602.079,357.39 711.412,276.556 820.5,195.5 Z"/></g>
<g><path style="opacity:1" fill="#000000" d="M 494.5,480.5 C 625.322,509.372 755.988,538.872 886.5,569C 852.314,689.32 781.314,780.82 673.5,843.5C 613.056,722.944 553.389,601.944 494.5,480.5 Z"/></g>
<g><path style="opacity:1" fill="#000000" d="M 411.5,480.5 C 412.675,480.281 413.675,480.614 414.5,481.5C 355.59,603.653 296.423,725.653 237,847.5C 124.275,783.285 50.7747,688.451 16.5,563C 16.9054,562.055 17.572,561.388 18.5,561C 149.725,534.589 280.725,507.756 411.5,480.5 Z"/></g>
<g><path style="opacity:1" fill="#000000" d="M 453.5,492.5 C 454.376,492.369 455.043,492.702 455.5,493.5C 515.833,616.167 576.167,738.833 636.5,861.5C 606.165,875.889 574.498,886.389 541.5,893C 451.965,910.497 364.965,902.164 280.5,868C 278.126,867.152 276.126,865.819 274.5,864C 333.884,740.008 393.55,616.174 453.5,492.5 Z"/></g>
</svg>
